<svg width="252" height="251" viewBox="0 0 252 251" fill="none" xmlns="http://www.w3.org/2000/svg">
<path d="M109.04 212.036C109.04 201.462 109.024 190.888 109.05 180.314C109.057 177.243 108.981 174.153 105.628 172.754C102.176 171.314 100.114 173.743 97.9774 175.889C88.7953 185.112 79.4631 194.188 70.4327 203.557C66.6181 207.514 63.5825 208.053 59.6984 203.706C55.5507 199.064 51.0419 194.725 46.4847 190.475C43.0338 187.257 42.5311 184.514 46.1719 180.976C55.6974 171.717 64.8795 162.104 74.4575 152.901C81.439 146.192 90.8433 145.977 97.8443 152.724C111.117 165.515 124.024 178.688 137 191.784C140.374 195.19 141.874 199.399 141.824 204.311C141.691 217.323 141.58 230.343 141.872 243.35C142.003 249.17 139.543 250.72 134.115 250.848C109.037 251.439 109.04 251.559 109.04 226.676C109.04 221.796 109.04 216.916 109.04 212.036Z" fill="#6670FF"/>
<path d="M211.847 141.54C201.252 141.54 190.659 141.556 180.064 141.531C176.987 141.523 173.925 141.551 172.65 145.1C171.521 148.244 173.618 150.168 175.562 152.112C184.589 161.139 193.432 170.361 202.705 179.126C207.432 183.595 208.001 186.766 203.033 191.737C185.81 208.972 185.978 209.142 168.687 191.896C163.495 186.717 158.174 181.658 153.159 176.311C146.189 168.881 146.095 159.526 153.145 152.324C165.873 139.319 178.864 126.57 191.709 113.678C194.954 110.421 198.794 108.776 203.375 108.777C216.957 108.78 230.54 108.871 244.121 108.716C248.506 108.666 250.331 110.188 250.703 114.755C252.889 141.546 252.981 141.538 226.516 141.538C221.627 141.538 216.737 141.538 211.848 141.538L211.847 141.54Z" fill="#6670FF"/>
<path d="M141.777 38.458C141.778 48.7616 141.773 59.0652 141.781 69.3689C141.784 72.5935 141.216 76.1605 144.952 77.8593C148.79 79.6047 150.939 76.6793 153.224 74.3948C162.235 65.3839 171.407 56.5247 180.169 47.2782C184.333 42.8846 187.241 43.0711 191.529 47.2629C209.488 64.8168 209.602 64.7032 192.067 82.2147C187.079 87.1965 182.173 92.2665 177.065 97.1221C169.202 104.596 160.106 104.893 152.508 97.4934C139.495 84.8196 126.774 71.8449 113.935 58.9915C110.724 55.7779 109.032 51.943 109.043 47.3434C109.071 33.7856 109.174 20.2268 108.975 6.67148C108.903 1.76592 110.724 -0.185446 115.655 0.0137604C122.153 0.275695 128.675 0.243485 135.175 0.0205433C140.071 -0.147298 141.951 1.81255 141.845 6.73252C141.616 17.3023 141.774 27.8806 141.776 38.4555L141.777 38.458Z" fill="#6670FF"/>
<path d="M38.989 109.285C49.5825 109.279 60.1752 109.285 70.7687 109.276C73.8628 109.273 76.9153 108.968 78.1275 105.495C79.2066 102.403 77.1611 100.416 75.203 98.4602C65.9784 89.2484 56.9099 79.8747 47.4896 70.868C43.2461 66.811 42.9714 63.9187 47.2624 59.4828C64.7391 41.4186 64.6103 41.2906 82.1904 58.7792C87.1969 63.7594 92.3491 68.6056 97.1462 73.7807C104.776 82.0126 104.787 91.0972 96.9673 99.0994C84.6292 111.725 72.025 124.091 59.5462 136.578C55.9029 140.224 51.6153 141.961 46.3825 141.904C33.3459 141.763 20.3051 141.706 7.27113 141.936C2.13924 142.027 -0.26649 140.475 0.0310479 134.979C0.368427 128.751 0.377752 122.475 0.0268105 116.248C-0.281747 110.78 2.07058 109.111 7.21179 109.222C17.8002 109.449 28.3963 109.29 38.9898 109.284L38.989 109.285Z" fill="#6670FF"/>
<path d="M125.791 149.192C138.873 149.192 149.478 138.587 149.478 125.505C149.478 112.423 138.873 101.818 125.791 101.818C112.709 101.818 102.104 112.423 102.104 125.505C102.104 138.587 112.709 149.192 125.791 149.192Z" fill="#6670FF"/>
</svg>
